G75*
G70*
%OFA0B0*%
%FSLAX24Y24*%
%IPPOS*%
%LPD*%
%AMOC8*
5,1,8,0,0,1.08239X$1,22.5*
%
%ADD10C,0.0160*%
%ADD11C,0.0050*%
%ADD12C,0.0060*%
%ADD13C,0.0100*%
D10*
X000967Y000417D02*
X012393Y000417D01*
X012447Y000419D01*
X012500Y000424D01*
X012553Y000433D01*
X012605Y000446D01*
X012657Y000462D01*
X012707Y000482D01*
X012755Y000505D01*
X012802Y000532D01*
X012847Y000561D01*
X012890Y000594D01*
X012930Y000629D01*
X012968Y000667D01*
X013003Y000707D01*
X013036Y000750D01*
X013065Y000795D01*
X013092Y000842D01*
X013115Y000890D01*
X013135Y000940D01*
X013151Y000992D01*
X013164Y001044D01*
X013173Y001097D01*
X013178Y001150D01*
X013180Y001204D01*
X013180Y004129D01*
X013178Y004183D01*
X013173Y004236D01*
X013164Y004289D01*
X013151Y004341D01*
X013135Y004393D01*
X013115Y004443D01*
X013092Y004491D01*
X013065Y004538D01*
X013036Y004583D01*
X013003Y004626D01*
X012968Y004666D01*
X012930Y004704D01*
X012890Y004739D01*
X012847Y004772D01*
X012802Y004801D01*
X012755Y004828D01*
X012707Y004851D01*
X012657Y004871D01*
X012605Y004887D01*
X012553Y004900D01*
X012500Y004909D01*
X012447Y004914D01*
X012393Y004916D01*
X012393Y004917D02*
X000967Y004917D01*
X000967Y004916D02*
X000913Y004914D01*
X000860Y004909D01*
X000807Y004900D01*
X000755Y004887D01*
X000703Y004871D01*
X000653Y004851D01*
X000605Y004828D01*
X000558Y004801D01*
X000513Y004772D01*
X000470Y004739D01*
X000430Y004704D01*
X000392Y004666D01*
X000357Y004626D01*
X000324Y004583D01*
X000295Y004538D01*
X000268Y004491D01*
X000245Y004443D01*
X000225Y004393D01*
X000209Y004341D01*
X000196Y004289D01*
X000187Y004236D01*
X000182Y004183D01*
X000180Y004129D01*
X000180Y001204D01*
X000182Y001150D01*
X000187Y001097D01*
X000196Y001044D01*
X000209Y000992D01*
X000225Y000940D01*
X000245Y000890D01*
X000268Y000842D01*
X000295Y000795D01*
X000324Y000750D01*
X000357Y000707D01*
X000392Y000667D01*
X000430Y000629D01*
X000470Y000594D01*
X000513Y000561D01*
X000558Y000532D01*
X000605Y000505D01*
X000653Y000482D01*
X000703Y000462D01*
X000755Y000446D01*
X000807Y000433D01*
X000860Y000424D01*
X000913Y000419D01*
X000967Y000417D01*
X000880Y001917D02*
X000882Y001973D01*
X000888Y002030D01*
X000898Y002085D01*
X000912Y002140D01*
X000929Y002194D01*
X000951Y002246D01*
X000976Y002296D01*
X001004Y002345D01*
X001036Y002392D01*
X001071Y002436D01*
X001109Y002478D01*
X001150Y002517D01*
X001194Y002552D01*
X001240Y002585D01*
X001288Y002614D01*
X001338Y002640D01*
X001390Y002663D01*
X001444Y002681D01*
X001498Y002696D01*
X001553Y002707D01*
X001609Y002714D01*
X001666Y002717D01*
X001722Y002716D01*
X001779Y002711D01*
X001834Y002702D01*
X001889Y002689D01*
X001943Y002672D01*
X001996Y002652D01*
X002047Y002628D01*
X002096Y002600D01*
X002143Y002569D01*
X002188Y002535D01*
X002231Y002497D01*
X002270Y002457D01*
X002307Y002414D01*
X002340Y002369D01*
X002370Y002321D01*
X002397Y002271D01*
X002420Y002220D01*
X002440Y002167D01*
X002456Y002113D01*
X002468Y002057D01*
X002476Y002002D01*
X002480Y001945D01*
X002480Y001889D01*
X002476Y001832D01*
X002468Y001777D01*
X002456Y001721D01*
X002440Y001667D01*
X002420Y001614D01*
X002397Y001563D01*
X002370Y001513D01*
X002340Y001465D01*
X002307Y001420D01*
X002270Y001377D01*
X002231Y001337D01*
X002188Y001299D01*
X002143Y001265D01*
X002096Y001234D01*
X002047Y001206D01*
X001996Y001182D01*
X001943Y001162D01*
X001889Y001145D01*
X001834Y001132D01*
X001779Y001123D01*
X001722Y001118D01*
X001666Y001117D01*
X001609Y001120D01*
X001553Y001127D01*
X001498Y001138D01*
X001444Y001153D01*
X001390Y001171D01*
X001338Y001194D01*
X001288Y001220D01*
X001240Y001249D01*
X001194Y001282D01*
X001150Y001317D01*
X001109Y001356D01*
X001071Y001398D01*
X001036Y001442D01*
X001004Y001489D01*
X000976Y001538D01*
X000951Y001588D01*
X000929Y001640D01*
X000912Y001694D01*
X000898Y001749D01*
X000888Y001804D01*
X000882Y001861D01*
X000880Y001917D01*
X010880Y001917D02*
X010882Y001973D01*
X010888Y002030D01*
X010898Y002085D01*
X010912Y002140D01*
X010929Y002194D01*
X010951Y002246D01*
X010976Y002296D01*
X011004Y002345D01*
X011036Y002392D01*
X011071Y002436D01*
X011109Y002478D01*
X011150Y002517D01*
X011194Y002552D01*
X011240Y002585D01*
X011288Y002614D01*
X011338Y002640D01*
X011390Y002663D01*
X011444Y002681D01*
X011498Y002696D01*
X011553Y002707D01*
X011609Y002714D01*
X011666Y002717D01*
X011722Y002716D01*
X011779Y002711D01*
X011834Y002702D01*
X011889Y002689D01*
X011943Y002672D01*
X011996Y002652D01*
X012047Y002628D01*
X012096Y002600D01*
X012143Y002569D01*
X012188Y002535D01*
X012231Y002497D01*
X012270Y002457D01*
X012307Y002414D01*
X012340Y002369D01*
X012370Y002321D01*
X012397Y002271D01*
X012420Y002220D01*
X012440Y002167D01*
X012456Y002113D01*
X012468Y002057D01*
X012476Y002002D01*
X012480Y001945D01*
X012480Y001889D01*
X012476Y001832D01*
X012468Y001777D01*
X012456Y001721D01*
X012440Y001667D01*
X012420Y001614D01*
X012397Y001563D01*
X012370Y001513D01*
X012340Y001465D01*
X012307Y001420D01*
X012270Y001377D01*
X012231Y001337D01*
X012188Y001299D01*
X012143Y001265D01*
X012096Y001234D01*
X012047Y001206D01*
X011996Y001182D01*
X011943Y001162D01*
X011889Y001145D01*
X011834Y001132D01*
X011779Y001123D01*
X011722Y001118D01*
X011666Y001117D01*
X011609Y001120D01*
X011553Y001127D01*
X011498Y001138D01*
X011444Y001153D01*
X011390Y001171D01*
X011338Y001194D01*
X011288Y001220D01*
X011240Y001249D01*
X011194Y001282D01*
X011150Y001317D01*
X011109Y001356D01*
X011071Y001398D01*
X011036Y001442D01*
X011004Y001489D01*
X010976Y001538D01*
X010951Y001588D01*
X010929Y001640D01*
X010912Y001694D01*
X010898Y001749D01*
X010888Y001804D01*
X010882Y001861D01*
X010880Y001917D01*
D11*
X009845Y001642D02*
X009845Y001192D01*
X009695Y001192D02*
X009995Y001192D01*
X009695Y001492D02*
X009845Y001642D01*
X009395Y000742D02*
X009395Y000292D01*
X009245Y000292D02*
X009545Y000292D01*
X009084Y000442D02*
X009084Y000742D01*
X008784Y000742D02*
X008784Y000442D01*
X008934Y000292D01*
X009084Y000442D01*
X009245Y000592D02*
X009395Y000742D01*
X008624Y000667D02*
X008549Y000742D01*
X008399Y000742D01*
X008324Y000667D01*
X008324Y000592D01*
X008399Y000517D01*
X008549Y000517D01*
X008624Y000442D01*
X008624Y000367D01*
X008549Y000292D01*
X008399Y000292D01*
X008324Y000367D01*
X004445Y001267D02*
X004370Y001192D01*
X004220Y001192D01*
X004145Y001267D01*
X004445Y001267D02*
X004445Y001417D01*
X004370Y001492D01*
X004295Y001492D01*
X004145Y001417D01*
X004145Y001642D01*
X004445Y001642D01*
X004830Y002826D02*
X004830Y004007D01*
X008530Y004007D01*
X008530Y002826D01*
X004830Y002826D01*
X009305Y004267D02*
X009380Y004192D01*
X009530Y004192D01*
X009605Y004267D01*
X009765Y004192D02*
X010066Y004492D01*
X010066Y004567D01*
X009991Y004642D01*
X009840Y004642D01*
X009765Y004567D01*
X009605Y004567D02*
X009530Y004642D01*
X009380Y004642D01*
X009305Y004567D01*
X009305Y004267D01*
X009765Y004192D02*
X010066Y004192D01*
D12*
X009330Y004017D02*
X011030Y004017D01*
X011047Y004015D01*
X011064Y004011D01*
X011080Y004004D01*
X011094Y003994D01*
X011107Y003981D01*
X011117Y003967D01*
X011124Y003951D01*
X011128Y003934D01*
X011130Y003917D01*
X011130Y002917D01*
X011128Y002900D01*
X011124Y002883D01*
X011117Y002867D01*
X011107Y002853D01*
X011094Y002840D01*
X011080Y002830D01*
X011064Y002823D01*
X011047Y002819D01*
X011030Y002817D01*
X009330Y002817D01*
X009313Y002819D01*
X009296Y002823D01*
X009280Y002830D01*
X009266Y002840D01*
X009253Y002853D01*
X009243Y002867D01*
X009236Y002883D01*
X009232Y002900D01*
X009230Y002917D01*
X009230Y003917D01*
X009232Y003934D01*
X009236Y003951D01*
X009243Y003967D01*
X009253Y003981D01*
X009266Y003994D01*
X009280Y004004D01*
X009296Y004011D01*
X009313Y004015D01*
X009330Y004017D01*
X010030Y003417D02*
X010080Y003417D01*
X010280Y003417D02*
X010330Y003417D01*
X009680Y001917D02*
X008780Y001917D01*
X008680Y001817D01*
X008580Y001917D01*
X007780Y001917D01*
X007680Y001817D01*
X007580Y001917D01*
X006780Y001917D01*
X006680Y001817D01*
X006580Y001917D01*
X005780Y001917D01*
X005680Y001817D01*
X005580Y001917D01*
X004680Y001917D01*
X004680Y000917D01*
X005580Y000917D01*
X005680Y001017D01*
X005780Y000917D01*
X006580Y000917D01*
X006680Y001017D01*
X006780Y000917D01*
X007580Y000917D01*
X007680Y001017D01*
X007780Y000917D01*
X008580Y000917D01*
X008680Y001017D01*
X008780Y000917D01*
X009680Y000917D01*
X009680Y001917D01*
D13*
X010080Y003117D02*
X010080Y003417D01*
X010080Y003717D01*
X010280Y003717D02*
X010280Y003417D01*
X010280Y003117D01*
M02*
